<svg width="20" height="20" viewBox="0 0 20 20" fill="none" xmlns="http://www.w3.org/2000/svg">
<path d="M9.99935 18.3337C8.83268 18.3337 7.7424 18.1149 6.72852 17.6774C5.71463 17.2399 4.83268 16.6462 4.08268 15.8962C3.33268 15.1462 2.7424 14.2607 2.31185 13.2399C1.88129 12.2191 1.66602 11.1253 1.66602 9.95866C1.66602 8.79199 1.88129 7.70519 2.31185 6.69824C2.7424 5.6913 3.33268 4.81283 4.08268 4.06283C4.83268 3.31283 5.71463 2.72602 6.72852 2.30241C7.7424 1.8788 8.83268 1.66699 9.99935 1.66699C11.166 1.66699 12.2563 1.8788 13.2702 2.30241C14.2841 2.72602 15.166 3.31283 15.916 4.06283C16.666 4.81283 17.2563 5.6913 17.6868 6.69824C18.1174 7.70519 18.3327 8.79199 18.3327 9.95866C18.3327 11.1253 18.1174 12.2191 17.6868 13.2399C17.2563 14.2607 16.666 15.1462 15.916 15.8962C15.166 16.6462 14.2841 17.2399 13.2702 17.6774C12.2563 18.1149 11.166 18.3337 9.99935 18.3337ZM9.99935 17.1253C10.4855 16.6253 10.8917 16.0524 11.2181 15.4066C11.5445 14.7607 11.8118 13.9934 12.0202 13.1045H7.99935C8.19379 13.9378 8.45421 14.6878 8.7806 15.3545C9.10699 16.0212 9.51324 16.6114 9.99935 17.1253ZM8.22852 16.8753C7.88129 16.3475 7.58268 15.7781 7.33268 15.167C7.08268 14.5559 6.87435 13.8684 6.70768 13.1045H3.58268C4.11046 14.0906 4.72157 14.8649 5.41602 15.4274C6.11046 15.9899 7.04796 16.4725 8.22852 16.8753ZM11.791 16.8545C12.791 16.535 13.6903 16.0559 14.4889 15.417C15.2875 14.7781 15.9299 14.0073 16.416 13.1045H13.3118C13.1313 13.8545 12.9195 14.535 12.6764 15.1462C12.4334 15.7573 12.1382 16.3267 11.791 16.8545ZM3.16602 11.8545H6.47852C6.43685 11.4795 6.41254 11.1427 6.4056 10.8441C6.39865 10.5455 6.39518 10.2503 6.39518 9.95866C6.39518 9.61144 6.40213 9.30241 6.41602 9.03158C6.4299 8.76074 6.45768 8.45866 6.49935 8.12533H3.16602C3.06879 8.45866 3.00282 8.75727 2.9681 9.02116C2.93338 9.28505 2.91602 9.59755 2.91602 9.95866C2.91602 10.3198 2.93338 10.6427 2.9681 10.9274C3.00282 11.2121 3.06879 11.5212 3.16602 11.8545ZM7.77018 11.8545H12.2493C12.3049 11.4239 12.3396 11.0732 12.3535 10.8024C12.3674 10.5316 12.3743 10.2503 12.3743 9.95866C12.3743 9.68088 12.3674 9.41352 12.3535 9.15658C12.3396 8.89963 12.3049 8.55588 12.2493 8.12533H7.77018C7.71463 8.55588 7.6799 8.89963 7.66602 9.15658C7.65213 9.41352 7.64518 9.68088 7.64518 9.95866C7.64518 10.2503 7.65213 10.5316 7.66602 10.8024C7.6799 11.0732 7.71463 11.4239 7.77018 11.8545ZM13.4993 11.8545H16.8327C16.9299 11.5212 16.9959 11.2121 17.0306 10.9274C17.0653 10.6427 17.0827 10.3198 17.0827 9.95866C17.0827 9.59755 17.0653 9.28505 17.0306 9.02116C16.9959 8.75727 16.9299 8.45866 16.8327 8.12533H13.5202C13.5618 8.61144 13.5896 8.98296 13.6035 9.23991C13.6174 9.49685 13.6243 9.73644 13.6243 9.95866C13.6243 10.2642 13.6139 10.5524 13.5931 10.8232C13.5723 11.0941 13.541 11.4378 13.4993 11.8545ZM13.291 6.87533H16.416C15.9577 5.91699 15.3292 5.11838 14.5306 4.47949C13.732 3.8406 12.8118 3.38921 11.7702 3.12533C12.1174 3.63921 12.4125 4.19477 12.6556 4.79199C12.8987 5.38921 13.1105 6.08366 13.291 6.87533ZM7.99935 6.87533H12.041C11.8882 6.13921 11.6313 5.42741 11.2702 4.73991C10.9091 4.05241 10.4855 3.44477 9.99935 2.91699C9.5549 3.29199 9.1799 3.78505 8.87435 4.39616C8.56879 5.00727 8.27713 5.83366 7.99935 6.87533ZM3.58268 6.87533H6.72852C6.88129 6.12533 7.07574 5.45519 7.31185 4.86491C7.54796 4.27463 7.84657 3.70171 8.20768 3.14616C7.16602 3.41005 6.25629 3.85449 5.47852 4.47949C4.70074 5.10449 4.06879 5.9031 3.58268 6.87533Z" fill="#F9F5FF"/>
</svg>
