<svg width="20" height="20" viewBox="0 0 20 20" fill="none" xmlns="http://www.w3.org/2000/svg">
<path d="M10 18.3332C8.83335 18.3332 7.74308 18.1144 6.72919 17.6769C5.7153 17.2394 4.83335 16.6457 4.08335 15.8957C3.33335 15.1457 2.74308 14.2603 2.31252 13.2394C1.88196 12.2186 1.66669 11.1248 1.66669 9.95817C1.66669 8.7915 1.88196 7.7047 2.31252 6.69775C2.74308 5.69081 3.33335 4.81234 4.08335 4.06234C4.83335 3.31234 5.7153 2.72553 6.72919 2.30192C7.74308 1.87831 8.83335 1.6665 10 1.6665C11.1667 1.6665 12.257 1.87831 13.2709 2.30192C14.2847 2.72553 15.1667 3.31234 15.9167 4.06234C16.6667 4.81234 17.257 5.69081 17.6875 6.69775C18.1181 7.7047 18.3334 8.7915 18.3334 9.95817C18.3334 11.1248 18.1181 12.2186 17.6875 13.2394C17.257 14.2603 16.6667 15.1457 15.9167 15.8957C15.1667 16.6457 14.2847 17.2394 13.2709 17.6769C12.257 18.1144 11.1667 18.3332 10 18.3332ZM10 17.1248C10.4861 16.6248 10.8924 16.0519 11.2188 15.4061C11.5452 14.7603 11.8125 13.9929 12.0209 13.104H8.00002C8.19446 13.9373 8.45488 14.6873 8.78127 15.354C9.10766 16.0207 9.51391 16.6109 10 17.1248ZM8.22919 16.8748C7.88196 16.3471 7.58335 15.7776 7.33335 15.1665C7.08335 14.5554 6.87502 13.8679 6.70835 13.104H3.58335C4.11113 14.0901 4.72224 14.8644 5.41669 15.4269C6.11113 15.9894 7.04863 16.4721 8.22919 16.8748ZM11.7917 16.854C12.7917 16.5346 13.691 16.0554 14.4896 15.4165C15.2882 14.7776 15.9306 14.0068 16.4167 13.104H13.3125C13.132 13.854 12.9202 14.5346 12.6771 15.1457C12.434 15.7568 12.1389 16.3262 11.7917 16.854ZM3.16669 11.854H6.47919C6.43752 11.479 6.41321 11.1422 6.40627 10.8436C6.39933 10.545 6.39585 10.2498 6.39585 9.95817C6.39585 9.61095 6.4028 9.30192 6.41669 9.03109C6.43058 8.76025 6.45835 8.45817 6.50002 8.12484H3.16669C3.06946 8.45817 3.00349 8.75678 2.96877 9.02067C2.93405 9.28456 2.91669 9.59706 2.91669 9.95817C2.91669 10.3193 2.93405 10.6422 2.96877 10.9269C3.00349 11.2116 3.06946 11.5207 3.16669 11.854ZM7.77085 11.854H12.25C12.3056 11.4234 12.3403 11.0728 12.3542 10.8019C12.3681 10.5311 12.375 10.2498 12.375 9.95817C12.375 9.68039 12.3681 9.41303 12.3542 9.15609C12.3403 8.89914 12.3056 8.55539 12.25 8.12484H7.77085C7.7153 8.55539 7.68058 8.89914 7.66669 9.15609C7.6528 9.41303 7.64585 9.68039 7.64585 9.95817C7.64585 10.2498 7.6528 10.5311 7.66669 10.8019C7.68058 11.0728 7.7153 11.4234 7.77085 11.854ZM13.5 11.854H16.8334C16.9306 11.5207 16.9965 11.2116 17.0313 10.9269C17.066 10.6422 17.0834 10.3193 17.0834 9.95817C17.0834 9.59706 17.066 9.28456 17.0313 9.02067C16.9965 8.75678 16.9306 8.45817 16.8334 8.12484H13.5209C13.5625 8.61095 13.5903 8.98248 13.6042 9.23942C13.6181 9.49636 13.625 9.73595 13.625 9.95817C13.625 10.2637 13.6146 10.5519 13.5938 10.8228C13.5729 11.0936 13.5417 11.4373 13.5 11.854ZM13.2917 6.87484H16.4167C15.9584 5.9165 15.3299 5.11789 14.5313 4.479C13.7327 3.84011 12.8125 3.38873 11.7709 3.12484C12.1181 3.63873 12.4132 4.19428 12.6563 4.7915C12.8993 5.38873 13.1111 6.08317 13.2917 6.87484ZM8.00002 6.87484H12.0417C11.8889 6.13873 11.632 5.42692 11.2709 4.73942C10.9097 4.05192 10.4861 3.44428 10 2.9165C9.55558 3.2915 9.18058 3.78456 8.87502 4.39567C8.56946 5.00678 8.2778 5.83317 8.00002 6.87484ZM3.58335 6.87484H6.72919C6.88196 6.12484 7.07641 5.4547 7.31252 4.86442C7.54863 4.27414 7.84724 3.70123 8.20835 3.14567C7.16669 3.40956 6.25696 3.854 5.47919 4.479C4.70141 5.104 4.06946 5.90261 3.58335 6.87484Z" fill="#5C5961"/>
</svg>
