<svg width="17" height="17" viewBox="0 0 17 17" fill="none" xmlns="http://www.w3.org/2000/svg">
<path d="M7.96859 12.0416H4.95817C3.97831 12.0416 3.14307 11.6963 2.45244 11.0056C1.76182 10.315 1.4165 9.47978 1.4165 8.49992C1.4165 7.52006 1.76182 6.68481 2.45244 5.99419C3.14307 5.30356 3.97831 4.95825 4.95817 4.95825H7.96859V6.02075H4.95817C4.26952 6.02075 3.68416 6.26138 3.20209 6.74263C2.72003 7.22387 2.479 7.80825 2.479 8.49576C2.479 9.18325 2.72003 9.76902 3.20209 10.253C3.68416 10.7371 4.26952 10.9791 4.95817 10.9791H7.96859V12.0416ZM5.75505 9.03117V7.96867H11.2446V9.03117H5.75505ZM9.03109 12.0416V10.9791H12.0415C12.7302 10.9791 13.3155 10.7385 13.7976 10.2572C14.2796 9.77596 14.5207 9.19159 14.5207 8.50408C14.5207 7.81658 14.2796 7.23082 13.7976 6.74679C13.3155 6.26277 12.7302 6.02075 12.0415 6.02075H9.03109V4.95825H12.0415C13.0214 4.95825 13.8566 5.30356 14.5472 5.99419C15.2379 6.68481 15.5832 7.52006 15.5832 8.49992C15.5832 9.47978 15.2379 10.315 14.5472 11.0056C13.8566 11.6963 13.0214 12.0416 12.0415 12.0416H9.03109Z" fill="#5B5A5A"/>
</svg>
