<svg width="17" height="17" viewBox="0 0 17 17" fill="none" xmlns="http://www.w3.org/2000/svg">
<path d="M8.50174 8.323C8.84305 8.323 9.13471 8.20147 9.37673 7.9584C9.61874 7.71535 9.73975 7.42316 9.73975 7.08184C9.73975 6.74053 9.61821 6.44887 9.37515 6.20685C9.1321 5.96484 8.83991 5.84383 8.49859 5.84383C8.15728 5.84383 7.86561 5.96536 7.6236 6.20843C7.38159 6.45148 7.26058 6.74367 7.26058 7.08499C7.26058 7.4263 7.38211 7.71796 7.62518 7.95998C7.86823 8.20199 8.16042 8.323 8.50174 8.323ZM8.50016 14.1845C10.0703 12.756 11.2302 11.4603 11.9798 10.2975C12.7295 9.13463 13.1043 8.1105 13.1043 7.22508C13.1043 5.83451 12.6599 4.69589 11.771 3.80923C10.8822 2.92258 9.79189 2.47925 8.50016 2.47925C7.20843 2.47925 6.11814 2.92258 5.22929 3.80923C4.34043 4.69589 3.896 5.83451 3.896 7.22508C3.896 8.1105 4.27968 9.13463 5.04704 10.2975C5.8144 11.4603 6.96544 12.756 8.50016 14.1845ZM8.50016 15.5834C6.59947 13.9661 5.17985 12.4638 4.24131 11.0766C3.30277 9.68949 2.8335 8.40564 2.8335 7.22508C2.8335 5.45425 3.40311 4.04348 4.54235 2.99279C5.68159 1.9421 7.00086 1.41675 8.50016 1.41675C9.99947 1.41675 11.3187 1.9421 12.458 2.99279C13.5972 4.04348 14.1668 5.45425 14.1668 7.22508C14.1668 8.40564 13.6976 9.68949 12.759 11.0766C11.8205 12.4638 10.4009 13.9661 8.50016 15.5834Z" fill="#5B5A5A"/>
</svg>
