<svg width="17" height="17" viewBox="0 0 17 17" fill="none" xmlns="http://www.w3.org/2000/svg">
<path d="M14.0781 14.875C12.6378 14.875 11.2064 14.5208 9.78385 13.8125C8.36128 13.1042 7.08333 12.1833 5.95 11.05C4.81667 9.91667 3.89583 8.63872 3.1875 7.21615C2.47917 5.79358 2.125 4.36215 2.125 2.92188C2.125 2.69419 2.20089 2.50446 2.35268 2.35268C2.50446 2.20089 2.69419 2.125 2.92188 2.125H5.40104C5.56173 2.125 5.7052 2.18108 5.83146 2.29323C5.95771 2.40538 6.03854 2.5559 6.07396 2.74479L6.55208 4.97604C6.57569 5.14132 6.57274 5.29184 6.54323 5.4276C6.51372 5.56337 6.45174 5.67847 6.35729 5.77292L4.58646 7.56146C5.24757 8.65938 5.98837 9.61562 6.80885 10.4302C7.62934 11.2448 8.55903 11.9354 9.59792 12.5021L11.2802 10.7667C11.3983 10.6368 11.534 10.5453 11.6875 10.4922C11.841 10.4391 11.9944 10.4302 12.1479 10.4656L14.2552 10.926C14.436 10.9659 14.5845 11.0555 14.7007 11.195C14.8169 11.3344 14.875 11.4986 14.875 11.6875V14.0781C14.875 14.3058 14.7991 14.4955 14.6473 14.6473C14.4955 14.7991 14.3058 14.875 14.0781 14.875ZM4.05521 6.5875L5.48958 5.13542L5.08229 3.1875H3.1875C3.1875 3.64792 3.25833 4.1526 3.4 4.70156C3.54167 5.25052 3.76007 5.87917 4.05521 6.5875ZM10.5896 13.0156C11.0736 13.2399 11.599 13.4229 12.1656 13.5646C12.7323 13.7063 13.2812 13.7889 13.8125 13.8125V11.9177L11.9885 11.5458L10.5896 13.0156Z" fill="#5B5A5A"/>
</svg>
