<svg width="1143" height="228" viewBox="0 0 1143 228" fill="none" xmlns="http://www.w3.org/2000/svg">
<mask id="path-1-outside-1_1975_5559" maskUnits="userSpaceOnUse" x="-0.659058" y="0.834961" width="1144" height="227" fill="black">
<rect fill="white" x="-0.659058" y="0.834961" width="1144" height="227"/>
<path d="M128.969 62.1333C127.832 52.048 123.145 44.2355 114.906 38.6958C106.668 33.085 96.2983 30.2796 83.7983 30.2796C74.8495 30.2796 67.108 31.7 60.5739 34.5409C54.0398 37.3108 48.9617 41.146 45.3395 46.0466C41.7884 50.8762 40.0128 56.3804 40.0128 62.5594C40.0128 67.744 41.2202 72.2185 43.635 75.9827C46.1208 79.7469 49.3523 82.9074 53.3296 85.4642C57.3779 87.95 61.7103 90.0452 66.3267 91.7497C70.9432 93.3833 75.3821 94.7327 79.6435 95.798L100.95 101.338C107.911 103.042 115.048 105.351 122.364 108.263C129.679 111.174 136.462 115.01 142.712 119.768C148.962 124.527 154.004 130.422 157.84 137.453C161.746 144.484 163.699 152.9 163.699 162.701C163.699 175.059 160.503 186.032 154.111 195.62C147.79 205.209 138.592 212.772 126.519 218.312C114.516 223.852 99.9915 226.622 82.9461 226.622C66.6108 226.622 52.4773 224.03 40.5455 218.845C28.6137 213.66 19.2742 206.309 12.527 196.792C5.77986 187.204 2.05117 175.841 1.34094 162.701H34.3665C35.0057 170.585 37.5625 177.155 42.037 182.41C46.5824 187.595 52.3708 191.466 59.402 194.022C66.5043 196.508 74.2813 197.751 82.733 197.751C92.037 197.751 100.311 196.295 107.555 193.383C114.871 190.4 120.624 186.281 124.814 181.025C129.004 175.699 131.099 169.484 131.099 162.382C131.099 155.919 129.253 150.628 125.56 146.508C121.938 142.389 117.001 138.98 110.751 136.281C104.572 133.582 97.5767 131.203 89.7642 129.143L63.983 122.112C46.5114 117.353 32.662 110.358 22.4347 101.125C12.2784 91.8918 7.20032 79.6759 7.20032 64.477C7.20032 51.906 10.6094 40.933 17.4276 31.558C24.2458 22.183 33.4787 14.9031 45.1265 9.71849C56.7742 4.4628 69.9134 1.83496 84.5441 1.83496C99.3168 1.83496 112.349 4.42729 123.642 9.61195C135.006 14.7966 143.955 21.9344 150.489 31.0253C157.023 40.0452 160.432 50.4145 160.716 62.1333H128.969Z"/>
<path d="M331.342 4.81792H364.368V148.319C364.368 163.589 360.781 177.119 353.608 188.909C346.434 200.628 336.349 209.861 323.352 216.608C310.355 223.284 295.12 226.622 277.649 226.622C260.248 226.622 245.049 223.284 232.052 216.608C219.055 209.861 208.97 200.628 201.797 188.909C194.623 177.119 191.037 163.589 191.037 148.319V4.81792H223.956V145.656C223.956 155.528 226.122 164.299 230.454 171.97C234.858 179.64 241.072 185.677 249.098 190.081C257.123 194.413 266.64 196.579 277.649 196.579C288.728 196.579 298.281 194.413 306.306 190.081C314.403 185.677 320.582 179.64 324.843 171.97C329.176 164.299 331.342 155.528 331.342 145.656V4.81792Z"/>
<path d="M400.228 4.81792H440.178L509.639 174.42H512.195L581.656 4.81792H621.606V223H590.285V65.1162H588.261L523.914 222.68H497.92L433.573 65.0097H431.549V223H400.228V4.81792Z"/>
<path d="M657.466 4.81792H697.417L766.877 174.42H769.434L838.894 4.81792H878.844V223H847.523V65.1162H845.499L781.152 222.68H755.158L690.811 65.0097H688.787V223H657.466V4.81792Z"/>
<path d="M947.624 4.81792V223H914.705V4.81792H947.624Z"/>
<path d="M972.804 33.156V4.81792H1141.66V33.156H1073.59V223H1040.77V33.156H972.804Z"/>
</mask>
<path d="M128.969 62.1333C127.832 52.048 123.145 44.2355 114.906 38.6958C106.668 33.085 96.2983 30.2796 83.7983 30.2796C74.8495 30.2796 67.108 31.7 60.5739 34.5409C54.0398 37.3108 48.9617 41.146 45.3395 46.0466C41.7884 50.8762 40.0128 56.3804 40.0128 62.5594C40.0128 67.744 41.2202 72.2185 43.635 75.9827C46.1208 79.7469 49.3523 82.9074 53.3296 85.4642C57.3779 87.95 61.7103 90.0452 66.3267 91.7497C70.9432 93.3833 75.3821 94.7327 79.6435 95.798L100.95 101.338C107.911 103.042 115.048 105.351 122.364 108.263C129.679 111.174 136.462 115.01 142.712 119.768C148.962 124.527 154.004 130.422 157.84 137.453C161.746 144.484 163.699 152.9 163.699 162.701C163.699 175.059 160.503 186.032 154.111 195.62C147.79 205.209 138.592 212.772 126.519 218.312C114.516 223.852 99.9915 226.622 82.9461 226.622C66.6108 226.622 52.4773 224.03 40.5455 218.845C28.6137 213.66 19.2742 206.309 12.527 196.792C5.77986 187.204 2.05117 175.841 1.34094 162.701H34.3665C35.0057 170.585 37.5625 177.155 42.037 182.41C46.5824 187.595 52.3708 191.466 59.402 194.022C66.5043 196.508 74.2813 197.751 82.733 197.751C92.037 197.751 100.311 196.295 107.555 193.383C114.871 190.4 120.624 186.281 124.814 181.025C129.004 175.699 131.099 169.484 131.099 162.382C131.099 155.919 129.253 150.628 125.56 146.508C121.938 142.389 117.001 138.98 110.751 136.281C104.572 133.582 97.5767 131.203 89.7642 129.143L63.983 122.112C46.5114 117.353 32.662 110.358 22.4347 101.125C12.2784 91.8918 7.20032 79.6759 7.20032 64.477C7.20032 51.906 10.6094 40.933 17.4276 31.558C24.2458 22.183 33.4787 14.9031 45.1265 9.71849C56.7742 4.4628 69.9134 1.83496 84.5441 1.83496C99.3168 1.83496 112.349 4.42729 123.642 9.61195C135.006 14.7966 143.955 21.9344 150.489 31.0253C157.023 40.0452 160.432 50.4145 160.716 62.1333H128.969Z" fill="url(#paint0_linear_1975_5559)" fill-opacity="0.2"/>
<path d="M331.342 4.81792H364.368V148.319C364.368 163.589 360.781 177.119 353.608 188.909C346.434 200.628 336.349 209.861 323.352 216.608C310.355 223.284 295.12 226.622 277.649 226.622C260.248 226.622 245.049 223.284 232.052 216.608C219.055 209.861 208.97 200.628 201.797 188.909C194.623 177.119 191.037 163.589 191.037 148.319V4.81792H223.956V145.656C223.956 155.528 226.122 164.299 230.454 171.97C234.858 179.64 241.072 185.677 249.098 190.081C257.123 194.413 266.64 196.579 277.649 196.579C288.728 196.579 298.281 194.413 306.306 190.081C314.403 185.677 320.582 179.64 324.843 171.97C329.176 164.299 331.342 155.528 331.342 145.656V4.81792Z" fill="url(#paint1_linear_1975_5559)" fill-opacity="0.2"/>
<path d="M400.228 4.81792H440.178L509.639 174.42H512.195L581.656 4.81792H621.606V223H590.285V65.1162H588.261L523.914 222.68H497.92L433.573 65.0097H431.549V223H400.228V4.81792Z" fill="url(#paint2_linear_1975_5559)" fill-opacity="0.2"/>
<path d="M657.466 4.81792H697.417L766.877 174.42H769.434L838.894 4.81792H878.844V223H847.523V65.1162H845.499L781.152 222.68H755.158L690.811 65.0097H688.787V223H657.466V4.81792Z" fill="url(#paint3_linear_1975_5559)" fill-opacity="0.2"/>
<path d="M947.624 4.81792V223H914.705V4.81792H947.624Z" fill="url(#paint4_linear_1975_5559)" fill-opacity="0.2"/>
<path d="M972.804 33.156V4.81792H1141.66V33.156H1073.59V223H1040.77V33.156H972.804Z" fill="url(#paint5_linear_1975_5559)" fill-opacity="0.2"/>
<path d="M128.969 62.1333C127.832 52.048 123.145 44.2355 114.906 38.6958C106.668 33.085 96.2983 30.2796 83.7983 30.2796C74.8495 30.2796 67.108 31.7 60.5739 34.5409C54.0398 37.3108 48.9617 41.146 45.3395 46.0466C41.7884 50.8762 40.0128 56.3804 40.0128 62.5594C40.0128 67.744 41.2202 72.2185 43.635 75.9827C46.1208 79.7469 49.3523 82.9074 53.3296 85.4642C57.3779 87.95 61.7103 90.0452 66.3267 91.7497C70.9432 93.3833 75.3821 94.7327 79.6435 95.798L100.95 101.338C107.911 103.042 115.048 105.351 122.364 108.263C129.679 111.174 136.462 115.01 142.712 119.768C148.962 124.527 154.004 130.422 157.84 137.453C161.746 144.484 163.699 152.9 163.699 162.701C163.699 175.059 160.503 186.032 154.111 195.62C147.79 205.209 138.592 212.772 126.519 218.312C114.516 223.852 99.9915 226.622 82.9461 226.622C66.6108 226.622 52.4773 224.03 40.5455 218.845C28.6137 213.66 19.2742 206.309 12.527 196.792C5.77986 187.204 2.05117 175.841 1.34094 162.701H34.3665C35.0057 170.585 37.5625 177.155 42.037 182.41C46.5824 187.595 52.3708 191.466 59.402 194.022C66.5043 196.508 74.2813 197.751 82.733 197.751C92.037 197.751 100.311 196.295 107.555 193.383C114.871 190.4 120.624 186.281 124.814 181.025C129.004 175.699 131.099 169.484 131.099 162.382C131.099 155.919 129.253 150.628 125.56 146.508C121.938 142.389 117.001 138.98 110.751 136.281C104.572 133.582 97.5767 131.203 89.7642 129.143L63.983 122.112C46.5114 117.353 32.662 110.358 22.4347 101.125C12.2784 91.8918 7.20032 79.6759 7.20032 64.477C7.20032 51.906 10.6094 40.933 17.4276 31.558C24.2458 22.183 33.4787 14.9031 45.1265 9.71849C56.7742 4.4628 69.9134 1.83496 84.5441 1.83496C99.3168 1.83496 112.349 4.42729 123.642 9.61195C135.006 14.7966 143.955 21.9344 150.489 31.0253C157.023 40.0452 160.432 50.4145 160.716 62.1333H128.969Z" stroke="url(#paint6_linear_1975_5559)" stroke-opacity="0.4" stroke-width="2" mask="url(#path-1-outside-1_1975_5559)"/>
<path d="M331.342 4.81792H364.368V148.319C364.368 163.589 360.781 177.119 353.608 188.909C346.434 200.628 336.349 209.861 323.352 216.608C310.355 223.284 295.12 226.622 277.649 226.622C260.248 226.622 245.049 223.284 232.052 216.608C219.055 209.861 208.97 200.628 201.797 188.909C194.623 177.119 191.037 163.589 191.037 148.319V4.81792H223.956V145.656C223.956 155.528 226.122 164.299 230.454 171.97C234.858 179.64 241.072 185.677 249.098 190.081C257.123 194.413 266.64 196.579 277.649 196.579C288.728 196.579 298.281 194.413 306.306 190.081C314.403 185.677 320.582 179.64 324.843 171.97C329.176 164.299 331.342 155.528 331.342 145.656V4.81792Z" stroke="url(#paint7_linear_1975_5559)" stroke-opacity="0.4" stroke-width="2" mask="url(#path-1-outside-1_1975_5559)"/>
<path d="M400.228 4.81792H440.178L509.639 174.42H512.195L581.656 4.81792H621.606V223H590.285V65.1162H588.261L523.914 222.68H497.92L433.573 65.0097H431.549V223H400.228V4.81792Z" stroke="url(#paint8_linear_1975_5559)" stroke-opacity="0.4" stroke-width="2" mask="url(#path-1-outside-1_1975_5559)"/>
<path d="M657.466 4.81792H697.417L766.877 174.42H769.434L838.894 4.81792H878.844V223H847.523V65.1162H845.499L781.152 222.68H755.158L690.811 65.0097H688.787V223H657.466V4.81792Z" stroke="url(#paint9_linear_1975_5559)" stroke-opacity="0.4" stroke-width="2" mask="url(#path-1-outside-1_1975_5559)"/>
<path d="M947.624 4.81792V223H914.705V4.81792H947.624Z" stroke="url(#paint10_linear_1975_5559)" stroke-opacity="0.4" stroke-width="2" mask="url(#path-1-outside-1_1975_5559)"/>
<path d="M972.804 33.156V4.81792H1141.66V33.156H1073.59V223H1040.77V33.156H972.804Z" stroke="url(#paint11_linear_1975_5559)" stroke-opacity="0.4" stroke-width="2" mask="url(#path-1-outside-1_1975_5559)"/>
<defs>
<linearGradient id="paint0_linear_1975_5559" x1="571" y1="5" x2="571" y2="223" gradientUnits="userSpaceOnUse">
<stop stop-color="#202020"/>
<stop offset="0.765625" stop-color="#520000" stop-opacity="0"/>
</linearGradient>
<linearGradient id="paint1_linear_1975_5559" x1="571" y1="5" x2="571" y2="223" gradientUnits="userSpaceOnUse">
<stop stop-color="#202020"/>
<stop offset="0.765625" stop-color="#520000" stop-opacity="0"/>
</linearGradient>
<linearGradient id="paint2_linear_1975_5559" x1="571" y1="5" x2="571" y2="223" gradientUnits="userSpaceOnUse">
<stop stop-color="#202020"/>
<stop offset="0.765625" stop-color="#520000" stop-opacity="0"/>
</linearGradient>
<linearGradient id="paint3_linear_1975_5559" x1="571" y1="5" x2="571" y2="223" gradientUnits="userSpaceOnUse">
<stop stop-color="#202020"/>
<stop offset="0.765625" stop-color="#520000" stop-opacity="0"/>
</linearGradient>
<linearGradient id="paint4_linear_1975_5559" x1="571" y1="5" x2="571" y2="223" gradientUnits="userSpaceOnUse">
<stop stop-color="#202020"/>
<stop offset="0.765625" stop-color="#520000" stop-opacity="0"/>
</linearGradient>
<linearGradient id="paint5_linear_1975_5559" x1="571" y1="5" x2="571" y2="223" gradientUnits="userSpaceOnUse">
<stop stop-color="#202020"/>
<stop offset="0.765625" stop-color="#520000" stop-opacity="0"/>
</linearGradient>
<linearGradient id="paint6_linear_1975_5559" x1="571" y1="5" x2="571" y2="223" gradientUnits="userSpaceOnUse">
<stop stop-color="white"/>
<stop offset="0.729167" stop-color="white" stop-opacity="0.03"/>
</linearGradient>
<linearGradient id="paint7_linear_1975_5559" x1="571" y1="5" x2="571" y2="223" gradientUnits="userSpaceOnUse">
<stop stop-color="white"/>
<stop offset="0.729167" stop-color="white" stop-opacity="0.03"/>
</linearGradient>
<linearGradient id="paint8_linear_1975_5559" x1="571" y1="5" x2="571" y2="223" gradientUnits="userSpaceOnUse">
<stop stop-color="white"/>
<stop offset="0.729167" stop-color="white" stop-opacity="0.03"/>
</linearGradient>
<linearGradient id="paint9_linear_1975_5559" x1="571" y1="5" x2="571" y2="223" gradientUnits="userSpaceOnUse">
<stop stop-color="white"/>
<stop offset="0.729167" stop-color="white" stop-opacity="0.03"/>
</linearGradient>
<linearGradient id="paint10_linear_1975_5559" x1="571" y1="5" x2="571" y2="223" gradientUnits="userSpaceOnUse">
<stop stop-color="white"/>
<stop offset="0.729167" stop-color="white" stop-opacity="0.03"/>
</linearGradient>
<linearGradient id="paint11_linear_1975_5559" x1="571" y1="5" x2="571" y2="223" gradientUnits="userSpaceOnUse">
<stop stop-color="white"/>
<stop offset="0.729167" stop-color="white" stop-opacity="0.03"/>
</linearGradient>
</defs>
</svg>
