<svg width="454" height="114" viewBox="0 0 454 114" fill="none" xmlns="http://www.w3.org/2000/svg">
<path d="M118.625 33.6182H102.856V103.026H118.625V33.6182Z" fill="#FF99A3"/>
<path d="M132.519 64.6016H124.634V103.028H132.519V64.6016Z" fill="#FF99A3"/>
<path d="M228.461 64.6016H220.576V103.028H228.461V64.6016Z" fill="#FF99A3"/>
<path d="M98.0088 67.1924H72.9338V109.85H98.0088V67.1924Z" fill="#FF99A3"/>
<path d="M92.9709 59.6025H77.9719V102.261H92.9709V59.6025Z" fill="#FF99A3"/>
<path d="M119.971 92.6992H90.4709V111.313H119.971V92.6992Z" fill="#FF99A3"/>
<path d="M230.952 92.6992H205.877V111.313H230.952V92.6992Z" fill="#FF99A3"/>
<path d="M77.41 93.1947L69.154 85.4297L60.897 93.1947V109.945H77.41V93.1947Z" fill="#FF99A3"/>
<path d="M56.262 97.8975L50.324 92.3125L44.385 97.8975V109.944H56.262V97.8975Z" fill="#FF99A3"/>
<path d="M132.519 81.2595L115.373 77.7314V112.332H132.519V81.2595Z" fill="#FF99A3"/>
<path d="M285.966 105.651H30.304V111.313H285.966V105.651Z" fill="#FF99A3"/>
<path d="M365.767 100.732H276.315V111.314H365.767V100.732Z" fill="#FF99A3"/>
<path d="M289.809 93.6084H243.489V112.659H289.809V93.6084Z" fill="#FF99A3"/>
<path d="M192.722 93.6084H102.856V112.659H192.722V93.6084Z" fill="#FF99A3"/>
<path d="M454 109.381H0V113.245H454V109.381Z" fill="#FF99A3"/>
<path d="M161.473 51.9989V47.1289H155.205V49.2759H148.936V51.9989H146.354V48.1939H142.588V51.9989H140.705V106.461H165.779V51.9989H161.473Z" fill="#FF99A3"/>
<path d="M114.192 31.3506H107.289V42.7096H114.192V31.3506Z" fill="#FF99A3"/>
<path d="M211.776 37.0297V36.1367H193.993V37.0297H189.316V111.07H217.262V37.0297H211.776Z" fill="#FF99A3"/>
<path d="M184.237 103.387H174.899L176.411 44.407L175.546 22.742H183.59L182.724 44.407L184.237 103.387Z" fill="#FF99A3"/>
<path d="M188.151 21.61H170.984V23.591H188.151V21.61Z" fill="#FF99A3"/>
<path d="M184.083 2.274H175.052V4.255H184.083V2.274Z" fill="#FF99A3"/>
<path d="M179.91 -6.274H179.226V3.12299H179.91V-6.274Z" fill="#FF99A3"/>
<path d="M179.733 -13H179.403V-3.603H179.733V-13Z" fill="#FF99A3"/>
<path d="M180.175 -6.521H178.961V-6.002H180.175V-6.521Z" fill="#FF99A3"/>
<path d="M187.915 21.987H171.22L169.019 8.216H190.117L187.915 21.987Z" fill="#FF99A3"/>
<path d="M174.022 3.31201H185.114L186.576 12.461H172.559L174.022 3.31201Z" fill="#FF99A3"/>
<path d="M428.603 96.1426C428.969 96.1426 425.946 91.0096 425.651 90.6696C421.615 86.0016 415.141 83.9596 409.117 83.9596C408.907 83.9596 408.703 83.9786 408.494 83.9826C409.255 81.8306 410.162 79.7296 411.24 77.7026C411.128 77.2916 405.769 77.0406 405.128 77.0186C402.458 76.9256 399.802 77.2786 397.237 78.0146C396.109 78.3376 391.429 79.4796 391.086 80.6446C392.309 76.4936 394.055 72.4896 396.281 68.6786C396.209 68.8016 389.516 67.8086 388.821 67.7866C383.241 67.6146 377.597 68.5096 372.403 70.5806C372.807 70.4196 367.252 62.7686 366.64 62.1016C364.153 59.3896 361.234 57.0666 357.997 55.3126C351.075 51.5636 342.894 50.6906 335.374 53.0926C337.428 58.3806 339.077 63.9136 340.281 69.6396C336.452 68.4346 332.247 67.7676 327.834 67.7676C324.787 67.7676 321.833 68.0846 319.039 68.6786C320.638 71.4176 321.986 74.2556 323.076 77.1756C320.32 76.4866 317.375 76.1076 314.309 76.1076C311.686 76.1076 309.143 76.3806 306.738 76.8916C308.985 80.7406 310.648 84.8206 311.696 89.0626H299.871V96.1426H294.752V109.828H436.784V96.1426C436.784 96.1426 428.606 96.1426 428.603 96.1426Z" fill="#FF99A3"/>
<path d="M314.183 88.0445V92.8675C312.558 91.5155 307.998 88.0935 297.999 82.8715C287.3 77.2825 273.69 76.9385 269.198 76.9925V76.9914C269.01 76.9814 250.211 76.1134 237.273 82.8715C228.911 87.2395 224.357 90.3454 222.137 92.0374V88.0445H215.471V108.45H222.138V100.283H314.184V108.45H320.851V88.0445H314.183ZM302.984 86.8494C305.053 88.0245 306.779 89.0704 308.216 89.9854L303.175 96.3805C303.111 96.3295 303.049 96.2775 302.984 96.2265V86.8494ZM302.58 95.9084C302.34 95.7194 302.102 95.5304 301.856 95.3404C300.668 94.4274 299.358 93.4874 297.957 92.5504L302.526 86.7544L302.58 95.9084ZM297.28 83.7624C297.403 83.8244 297.528 83.8834 297.65 83.9474C299.306 84.8124 300.796 85.6225 302.165 86.3895L297.532 92.2664C297.447 92.2104 297.366 92.1544 297.28 92.0974V83.7624ZM291.246 81.2844V88.5915C289.819 87.8605 288.325 87.1684 286.772 86.5265L291.232 81.2804C291.237 81.2814 291.241 81.2824 291.246 81.2844ZM286.28 79.9184C287.743 80.2505 289.225 80.6464 290.701 81.1114L286.28 86.3125V79.9184ZM281.389 79.0024C282.704 79.1994 284.065 79.4435 285.449 79.7374L281.389 84.4455V79.0024ZM276.822 78.4614C278 78.5654 279.255 78.7055 280.56 78.8855L276.822 83.4254V78.4614ZM280.93 79.2414V84.4795C279.761 84.1445 278.564 83.8514 277.345 83.5955L280.93 79.2414ZM272.246 78.1875C273.291 78.2195 274.482 78.2775 275.784 78.3765L272.286 82.8144C272.273 82.8134 272.259 82.8124 272.246 82.8104V78.1875ZM276.364 78.4625V83.3994C275.225 83.1844 274.071 82.9994 272.893 82.8654L276.364 78.4625ZM271.787 78.1745V82.7695C270.625 82.6655 269.448 82.5984 268.251 82.5844L271.729 78.1724C271.748 78.1734 271.767 78.1745 271.787 78.1745ZM267.895 78.1884C268.302 78.1714 269.436 78.1345 271.09 78.1605L267.895 82.2135V78.1884ZM267.378 78.1154V82.2135L264.181 78.1575C265.465 78.1165 266.55 78.1094 267.378 78.1154ZM263.486 78.1814C263.508 78.1805 263.527 78.1804 263.549 78.1794L267.027 82.5925C265.829 82.6125 264.649 82.6805 263.486 82.7895V78.1814ZM263.027 78.2014V82.8295C263.018 82.8305 263.01 82.8304 263.001 82.8314L259.525 78.4224C260.782 78.3185 261.957 78.2484 263.027 78.2014ZM258.909 78.4755C258.912 78.4755 258.915 78.4744 258.918 78.4744L262.397 82.8874C261.212 83.0264 260.054 83.2224 258.909 83.4424V78.4755ZM258.451 78.5174V83.5334C258.424 83.5384 258.398 83.5435 258.371 83.5495L254.744 78.9495C256.025 78.7705 257.267 78.6294 258.451 78.5174ZM254.342 79.2624L257.809 83.6605C256.629 83.9155 255.475 84.2115 254.342 84.5405V79.2624ZM253.884 79.0745V84.6024L249.859 79.7945C251.221 79.5105 252.569 79.2715 253.884 79.0745ZM248.993 79.9795V86.4034C248.97 86.4124 248.947 86.4214 248.924 86.4314L244.579 81.1454C246.042 80.6944 247.521 80.3075 248.993 79.9795ZM244.027 81.3155C244.035 81.3125 244.043 81.3105 244.051 81.3085L248.426 86.6315C246.901 87.2685 245.431 87.9534 244.027 88.6754V81.3155ZM237.623 83.9464C237.745 83.8824 237.87 83.8244 237.993 83.7624V92.1884C237.923 92.2334 237.857 92.2795 237.788 92.3245L233.108 86.3874C234.476 85.6224 235.966 84.8124 237.623 83.9464ZM232.747 86.7534L237.362 92.6085C235.987 93.5255 234.699 94.4454 233.529 95.3394C233.239 95.5604 232.959 95.7814 232.677 96.0024L232.747 86.7534ZM232.288 86.8484V96.3075C232.237 96.3485 232.188 96.3884 232.137 96.4294L227.055 89.9835C228.492 89.0695 230.218 88.0234 232.288 86.8484ZM226.154 98.3425H222.137V93.4075C222.965 92.7565 224.255 91.8054 226.154 90.5644V98.3425ZM226.613 98.3425V90.2664C226.617 90.2644 226.621 90.2615 226.624 90.2595L231.774 96.7255C231.103 97.2695 230.457 97.8094 229.838 98.3434L226.613 98.3425ZM238.021 98.3425H231.492C232.292 97.6775 233.124 97.0074 234.002 96.3364C235.224 95.4035 236.574 94.4415 238.021 93.4845V98.3425ZM238.451 83.6265L242.903 89.2744C241.334 90.1204 239.843 90.9984 238.451 91.8914V83.6265ZM243.563 98.3425H238.48V93.1794C240.054 92.1554 241.755 91.1455 243.563 90.1835V98.3425ZM243.568 88.9164C243.497 88.9534 243.429 88.9924 243.359 89.0294L238.867 83.3304C240.379 82.6164 241.959 82.0024 243.569 81.4684V88.9164H243.568ZM244.022 98.3425V90.1005C244.022 90.0865 244.012 90.0785 244.011 90.0655C244.016 90.0424 244.027 90.0225 244.027 89.9975V89.9335C245.635 89.0945 247.334 88.3045 249.106 87.5795V98.3425H244.022ZM249.452 80.1064L253.403 84.8255C252.049 85.2465 250.731 85.7124 249.452 86.2194V80.1064ZM254.647 98.3425H249.564V87.3945C251.197 86.7425 252.891 86.1515 254.647 85.6445V98.3425ZM260.189 98.3425H255.106V85.5055C256.751 85.0475 258.448 84.6674 260.189 84.3755V98.3425ZM265.731 98.3425H260.648V84.3104C262.304 84.0494 263.999 83.8725 265.731 83.7934V98.3425ZM269.083 98.3425H266.189V83.7804C266.707 83.7625 267.222 83.7345 267.747 83.7345C268.197 83.7345 268.638 83.7604 269.083 83.7744V98.3425ZM274.625 98.3425H269.542V83.7874C271.275 83.8584 272.97 84.0254 274.625 84.2794V98.3425ZM280.167 98.3425H275.084V84.3455C276.826 84.6294 278.523 85.0014 280.167 85.4524V98.3425ZM285.709 98.3425H280.626V85.5835C282.383 86.0835 284.076 86.6714 285.709 87.3184V98.3425ZM285.821 86.1435C284.523 85.6335 283.184 85.1674 281.809 84.7465L285.821 80.0934V86.1435ZM291.251 90.0994V98.3415H286.168V87.5024C287.939 88.2224 289.64 89.0065 291.246 89.8425V89.9965C291.246 90.0215 291.258 90.0414 291.262 90.0644C291.261 90.0774 291.251 90.0864 291.251 90.0994ZM291.705 81.4375C293.299 81.9765 294.879 82.6005 296.408 83.3285L291.964 88.9665C291.877 88.9205 291.793 88.8724 291.705 88.8264V81.4375ZM296.793 98.3425H291.71V90.1114L291.72 90.0994C293.524 91.0574 295.223 92.0655 296.793 93.0875V98.3425ZM296.822 91.8035C295.443 90.9195 293.97 90.0495 292.418 89.2125L296.822 83.6265V91.8035ZM297.251 98.3425V93.4445L297.277 93.4115C298.747 94.3865 300.117 95.3665 301.354 96.3165C302.236 96.9935 303.071 97.6715 303.873 98.3425H297.251ZM308.66 98.3425H305.519C304.872 97.7795 304.195 97.2104 303.49 96.6364L308.648 90.2595C308.652 90.2625 308.657 90.2645 308.66 90.2674V98.3425ZM313.974 94.3075V98.3415H309.119V90.5665C312.187 92.5735 313.703 93.8464 314.183 94.2744V94.3075H313.974Z" fill="#FF99A3"/>
</svg>
