<svg width="27" height="21" viewBox="0 0 27 21" fill="none" xmlns="http://www.w3.org/2000/svg">
<g id="testi-quote">
<path id="qoute" d="M0 21V15.4737C0 13.7953 0.292601 12.0146 0.877802 10.1316C1.48318 8.22807 2.3509 6.3962 3.48094 4.63597C4.63117 2.85526 6.01345 1.30994 7.6278 0L11.5022 3.19298C10.2309 5.03509 9.12108 6.95906 8.17265 8.96491C7.24439 10.9503 6.78027 13.0789 6.78027 15.3509V21H0ZM15.4978 21V15.4737C15.4978 13.7953 15.7904 12.0146 16.3756 10.1316C16.9809 8.22807 17.8487 6.3962 18.9787 4.63597C20.1289 2.85526 21.5112 1.30994 23.1256 0L27 3.19298C25.7287 5.03509 24.6188 6.95906 23.6704 8.96491C22.7422 10.9503 22.278 13.0789 22.278 15.3509V21H15.4978Z" fill="#D80016"/>
</g>
</svg>
